<svg xmlns="http://www.w3.org/2000/svg" viewBox="0 0 64 64">
  <defs>
    <linearGradient id="pm-gradient" x1="10" y1="8" x2="54" y2="57" gradientUnits="userSpaceOnUse">
      <stop stop-color="#9B6BFF"/>
      <stop offset="1" stop-color="#5C2DCB"/>
    </linearGradient>
  </defs>
  <rect width="64" height="64" rx="16" fill="#161225"/>
  <rect x="9" y="12" width="46" height="40" rx="10" fill="url(#pm-gradient)"/>
  <path d="M25 22.5c0-2.1 2.3-3.4 4.1-2.3l14.3 8.7c1.7 1 1.7 3.5 0 4.5L29.1 42c-1.8 1.1-4.1-.2-4.1-2.3V22.5Z" fill="#fff"/>
  <path d="M14 19h5M14 25h3M14 31h5M14 37h3M14 43h5" stroke="#E9E0FF" stroke-width="2.5" stroke-linecap="round" opacity=".9"/>
  <path d="M45 19h5M47 25h3M45 31h5M47 37h3M45 43h5" stroke="#E9E0FF" stroke-width="2.5" stroke-linecap="round" opacity=".9"/>
</svg>
